<?xml version="1.0" encoding="UTF-8"?>
<svg xmlns="http://www.w3.org/2000/svg" xmlns:xlink="http://www.w3.org/1999/xlink" version="1.1" id="Layer_1" x="0px" y="0px" viewBox="0 0 679 241" style="enable-background:new 0 0 679 241;" xml:space="preserve">
<style type="text/css">
	.st0{fill:#FFFFFF;}
	.st1{fill:#F1212F;}
</style>
<path class="st0" d="M396.6,173.6v-64h-71.9v64h-32.4V21.3h32.4v59.8h71.9V21.3h32.7v152.3H396.6z"></path>
<path class="st0" d="M457.6,173.6V21.3h32.5v152.3H457.6z"></path>
<path class="st0" d="M518.2,173.6V21.3H626v28.5h-75.4V82h73.8v28.6l-73.8-0.1v63.1H518.2z"></path>
<path class="st0" d="M646.1,173.6V21.3h32.4v152.3H646.1z"></path>
<path class="st0" d="M293.5,230.1v-26.7h9.1c8.3,0,13.7,5.8,13.7,13.4c0,7.5-5.4,13.3-13.7,13.3H293.5z M312.9,216.8  c0-5.8-3.7-10.5-10.3-10.5h-5.8v20.8h5.8C309.1,227.1,312.9,222.5,312.9,216.8z"></path>
<path class="st0" d="M329.2,230.1v-26.7h17.5v3h-14.1v8.6h13.9v3h-13.9v9.2h14.2v3L329.2,230.1z"></path>
<path class="st0" d="M368.4,230.1l-10.7-26.7h3.8l9,23l9-23h3.8l-10.7,26.7H368.4z"></path>
<path class="st0" d="M394.8,230.1v-26.7h17.5v3h-14.2v8.6H412v3h-13.9v9.2h14.2v3L394.8,230.1z"></path>
<path class="st0" d="M425.3,230.1v-26.7h3.3v23.7H441v3H425.3z"></path>
<path class="st0" d="M450.6,216.8c0-7.9,5.3-13.9,13.3-13.9c7.9,0,13.2,6,13.2,13.9s-5.3,13.8-13.2,13.8  C456,230.6,450.6,224.6,450.6,216.8z M473.7,216.8c0-6.3-3.9-10.9-9.8-10.9c-6,0-9.8,4.6-9.8,10.9c0,6.2,3.8,10.8,9.8,10.8  S473.7,223,473.7,216.8z"></path>
<path class="st0" d="M490.2,230.1v-26.7h10.7c5.4,0,8.4,3.7,8.4,8c0,4.4-3.1,8-8.4,8h-7.4v10.7H490.2z M505.9,211.4  c0-0.7-0.1-1.3-0.4-2c-0.3-0.7-0.7-1.2-1.2-1.7c-0.5-0.5-1-0.8-1.7-1.1c-0.7-0.2-1.4-0.3-2.1-0.3h-7v10.2h7c0.7,0.1,1.4,0,2.1-0.3  c0.7-0.2,1.2-0.6,1.7-1.1c0.5-0.5,0.9-1,1.2-1.6C505.8,212.8,505.9,212.1,505.9,211.4L505.9,211.4z"></path>
<path class="st0" d="M544,230.1v-22l-9.1,22h-1.4l-9-22v22h-3.4v-26.7h4.8l8.3,20.1l8.3-20.1h4.8v26.7H544z"></path>
<path class="st0" d="M561.6,230.1v-26.7h17.5v3h-14.2v8.6h13.9v3h-13.9v9.2h14.2v3L561.6,230.1z"></path>
<path class="st0" d="M611,230.1l-15.5-21.3v21.3h-3.4v-26.7h3.4l15.4,20.9v-20.9h3.3v26.7H611z"></path>
<path class="st0" d="M634.6,230.1v-23.8h-8.5v-3h20.3v3h-8.5v23.8H634.6z"></path>
<path class="st0" d="M656.6,226.3l2-2.5c0.5,0.6,1.1,1.1,1.7,1.6c0.7,0.5,1.4,0.9,2.1,1.2c0.7,0.3,1.5,0.6,2.2,0.8  c0.8,0.1,1.6,0.2,2.4,0.2c4.7,0,6.3-2.6,6.3-4.6c0-6.9-15.9-3.1-15.9-12.6c0-4.4,4-7.4,9.2-7.4c0.9-0.1,1.7,0,2.6,0.1  c0.9,0.1,1.7,0.4,2.6,0.7c0.8,0.3,1.6,0.7,2.3,1.2c0.7,0.5,1.4,1.1,2,1.7l-2,2.4c-0.5-0.5-1-0.9-1.6-1.4c-0.6-0.4-1.2-0.7-1.9-1  s-1.4-0.5-2.1-0.6c-0.7-0.1-1.4-0.2-2.1-0.2c-3.2,0-5.5,1.8-5.5,4.3c0,6,15.8,2.5,15.8,12.5c0,3.9-2.6,7.9-9.8,7.9  c-1,0-2-0.1-2.9-0.2c-0.9-0.2-1.9-0.5-2.8-0.8c-0.9-0.4-1.7-0.9-2.5-1.4C657.9,227.7,657.2,227,656.6,226.3z"></path>
<path class="st1" d="M168.2,0v75.5c0,1,1.9,4.3,3.2,4.8l70.6,31.8v78.8c-25.2,14.4-48.8,31.9-74.8,45.1V88.5c0-2.3-5-6.3-7.7-3.7  L97.2,122V42.5l67.4-41.6L168.2,0z M84.9,155.2c-2.8,2.8-9.7,1-9.7-2.7V4L0.4,50.2L0.7,128l70.2,32.8c1.1,0.4,3.3,2.9,3.3,3.7V241  l71-42.5V119L84.9,155.2z"></path>
</svg>
