<svg xmlns="http://www.w3.org/2000/svg" id="Layer_1" viewBox="0 0 812.4 178.5"><defs><style>      .st0 {        fill: #e5e5e5;      }      .st1 {        fill: #f22048;      }    </style></defs><g><path class="st0" d="M299.9,127.6h-33.7l-32.6-54.6-14.1,17.8v36.7h-28.6V0h28.6v44.4L254.2,0h37l-38.3,48.6,47.1,79Z"></path><path class="st0" d="M389.4,0v28.2h-49.5v18h49.3v28.6h-49.3v24.2h49.3v28.6h-77.9V0h78.1Z"></path><path class="st0" d="M471.9,0c23.8,0,42.7,18.9,42.7,42.5s-18.9,42.5-42.7,42.5h-33.4v42.7h-28.6V0h62ZM438.5,28.6v27.3h34.8c7.5,0,13.6-5.9,13.6-13.6s-6.2-13.6-13.6-13.6h-34.8Z"></path><path class="st0" d="M597.8,99v28.6h-73.1V0h28.6v99h44.4Z"></path><path class="st0" d="M685.2,0v28.2h-49.5v18h49.3v28.6h-49.3v24.2h49.3v28.6h-77.9V0h78.1Z"></path><path class="st0" d="M767.7,0c23.8,0,42.7,18.9,42.7,42.5s-8.8,29.9-22,37.2l24,48h-32.6l-21.3-42.7h-24.2v42.7h-28.6V0h62ZM734.2,28.6v27.3h34.8c7.5,0,13.6-5.9,13.6-13.6s-6.2-13.6-13.6-13.6h-34.8Z"></path></g><g><path class="st0" d="M192.9,178.2v-35h13.9c3.7,0,7,.8,9.8,2.2s5,3.6,6.5,6.2c1.6,2.6,2.3,5.6,2.3,9s-.8,6.4-2.3,9c-1.5,2.6-3.7,4.7-6.5,6.2s-6,2.2-9.8,2.2h-13.9ZM195.4,175.9h11.1c3.3,0,6.2-.7,8.6-2s4.3-3.1,5.7-5.4c1.3-2.3,2-4.9,2-7.9s-.7-5.6-2-7.9c-1.3-2.3-3.2-4.1-5.7-5.4s-5.3-2-8.6-2h-11.1v30.4Z"></path><path class="st0" d="M255,175.9h21.6v2.3h-24.2v-35h23.4v2.3h-20.8v30.4ZM254.7,159.3h19v2.2h-19v-2.2Z"></path><path class="st0" d="M315.2,178.2l-15.6-35h2.8l14.9,33.5h-1.5l15-33.5h2.6l-15.6,35h-2.5Z"></path><path class="st0" d="M360.7,175.9h21.6v2.3h-24.2v-35h23.4v2.3h-20.8v30.4ZM360.4,159.3h19v2.2h-19v-2.2Z"></path><path class="st0" d="M408.4,178.2v-35h2.6v32.7h20.1v2.3h-22.7Z"></path><path class="st0" d="M468.9,178.5c-2.6,0-5-.4-7.2-1.3-2.2-.9-4.1-2.1-5.8-3.8-1.6-1.6-2.9-3.5-3.8-5.6-.9-2.2-1.3-4.5-1.3-7s.5-4.9,1.3-7c.9-2.1,2.2-4,3.8-5.6,1.7-1.6,3.6-2.9,5.8-3.8,2.2-.9,4.6-1.3,7.2-1.3s5,.4,7.2,1.3c2.2.9,4.1,2.1,5.8,3.7,1.6,1.6,2.9,3.5,3.8,5.6.9,2.2,1.4,4.5,1.4,7.1s-.5,4.9-1.4,7.1c-.9,2.1-2.2,4-3.8,5.6-1.6,1.6-3.6,2.8-5.8,3.7-2.2.9-4.6,1.3-7.2,1.3ZM468.9,176.1c2.2,0,4.3-.4,6.2-1.2,1.9-.8,3.5-1.8,4.9-3.2,1.4-1.4,2.5-3,3.3-4.9.8-1.9,1.2-3.9,1.2-6.1s-.4-4.3-1.2-6.1-1.9-3.5-3.3-4.9c-1.4-1.4-3-2.5-4.9-3.2-1.9-.8-4-1.2-6.2-1.2s-4.3.4-6.2,1.2c-1.9.8-3.6,1.8-5,3.2-1.4,1.4-2.5,3-3.3,4.9s-1.2,3.9-1.2,6.1.4,4.2,1.2,6.1c.8,1.9,1.9,3.5,3.3,4.9,1.4,1.4,3.1,2.5,5,3.2,1.9.8,4,1.2,6.2,1.2Z"></path><path class="st0" d="M514.2,178.2v-35h12.6c2.9,0,5.4.5,7.5,1.4,2.1.9,3.7,2.3,4.8,4,1.1,1.8,1.7,3.9,1.7,6.4s-.6,4.5-1.7,6.3c-1.1,1.8-2.8,3.1-4.8,4.1-2.1.9-4.6,1.4-7.5,1.4h-11.2l1.2-1.2v12.7h-2.6ZM516.8,165.7l-1.2-1.2h11.2c3.8,0,6.6-.8,8.6-2.5,2-1.7,2.9-4,2.9-7s-1-5.4-2.9-7c-1.9-1.7-4.8-2.5-8.6-2.5h-11.2l1.2-1.2v21.5Z"></path><path class="st0" d="M567.3,178.2v-35h2.2l16.2,28h-1.2l16.2-28h2.1v35s-2.5,0-2.5,0v-31.2s.6,0,.6,0l-15.3,26.5h-1.2l-15.4-26.5h.8v31.2h-2.5Z"></path><path class="st0" d="M635.3,175.9h21.6v2.3h-24.2v-35h23.4v2.3h-20.8v30.4ZM635,159.3h19v2.2h-19v-2.2Z"></path><path class="st0" d="M683,178.2v-35h2.2l25,31.8h-1.2v-31.8h2.5v35h-2.1l-25-31.8h1.2v31.8h-2.6Z"></path><path class="st0" d="M748.8,178.2v-32.7h-12.6v-2.3h27.8v2.3h-12.6v32.7h-2.5Z"></path><path class="st0" d="M797.9,178.5c-2.6,0-5.1-.4-7.4-1.3-2.3-.9-4.1-2-5.4-3.4l1.2-1.9c1.2,1.2,2.8,2.3,4.9,3.1,2.1.9,4.3,1.3,6.6,1.3s4.2-.3,5.7-.9c1.5-.6,2.6-1.4,3.3-2.5.7-1,1.1-2.2,1.1-3.4s-.4-2.7-1.2-3.6c-.8-.9-1.9-1.6-3.2-2.1s-2.7-1-4.2-1.4c-1.5-.4-3.1-.8-4.7-1.2-1.6-.4-3-1-4.3-1.6-1.3-.7-2.3-1.6-3.1-2.7-.8-1.2-1.2-2.6-1.2-4.5s.4-3.2,1.3-4.6c.9-1.4,2.2-2.5,4-3.4,1.8-.9,4.2-1.3,7.1-1.3s3.8.3,5.7.8c1.9.6,3.5,1.3,4.8,2.3l-1,2c-1.5-1-3-1.7-4.7-2.2-1.7-.5-3.3-.7-4.9-.7-2.2,0-4.1.3-5.6,1-1.5.6-2.5,1.5-3.2,2.5-.7,1.1-1,2.2-1,3.5s.4,2.7,1.2,3.6c.8.9,1.8,1.6,3.1,2.2,1.3.5,2.7,1,4.3,1.3,1.6.4,3.1.8,4.6,1.2s3,1,4.2,1.6,2.4,1.6,3.2,2.7c.8,1.1,1.2,2.6,1.2,4.4s-.5,3.2-1.4,4.6c-.9,1.4-2.3,2.5-4.1,3.4-1.8.9-4.2,1.3-7.1,1.3Z"></path></g><polygon class="st1" points="0 104.3 0 174.3 24.9 149.4 24.9 104.3 0 104.3"></polygon><polygon class="st1" points="85.9 148.7 121.1 148.7 76.8 104.3 41.5 104.3 85.9 148.7"></polygon><polygon class="st1" points="102.7 74.6 24.9 74.6 24.9 29 0 4 0 99.5 127.6 99.5 102.7 74.6"></polygon><polygon class="st1" points="137.7 .1 137.7 153.5 29.1 153.5 4.1 178.5 162.6 178.5 162.6 .1 137.7 .1"></polygon><polygon class="st1" points="29.2 24.9 106.9 24.9 106.9 70.5 131.8 95.5 131.8 0 4.2 0 29.2 24.9"></polygon></svg>